<?xml version="1.0" encoding="utf-8"?>
<!-- Generator: Adobe Illustrator 15.0.1, SVG Export Plug-In . SVG Version: 6.00 Build 0)  -->
<!DOCTYPE svg PUBLIC "-//W3C//DTD SVG 1.1//EN" "http://www.w3.org/Graphics/SVG/1.1/DTD/svg11.dtd">
<svg version="1.1" id="Calque_1" xmlns="http://www.w3.org/2000/svg" xmlns:xlink="http://www.w3.org/1999/xlink" x="0px" y="0px"
	 width="20px" height="20px" viewBox="0 0 20 20" enable-background="new 0 0 20 20" xml:space="preserve">
<path d="M16.666,0H3.332C1.492,0,0,1.492,0,3.334v13.332C0,18.508,1.492,20,3.332,20h13.334C18.508,20,20,18.508,20,16.666V3.334
	C20,1.492,18.508,0,16.666,0z M13,6.706h-1.217C11.23,6.706,11,7.246,11,7.354V9h2v2h-2v6H9v-6H7V9h2V7.354
	C9,6.766,9.016,6.02,9.57,5.477c0.443-0.437,0.958-0.602,1.621-0.602C12.018,4.875,13,5.083,13,5.083V6.706z"/>
</svg>
