<?xml version="1.0" encoding="utf-8"?>
<!-- Generator: Adobe Illustrator 15.0.1, SVG Export Plug-In . SVG Version: 6.00 Build 0)  -->
<!DOCTYPE svg PUBLIC "-//W3C//DTD SVG 1.1//EN" "http://www.w3.org/Graphics/SVG/1.1/DTD/svg11.dtd">
<svg version="1.1" id="Calque_1" xmlns="http://www.w3.org/2000/svg" xmlns:xlink="http://www.w3.org/1999/xlink" x="0px" y="0px"
	 width="20px" height="20px" viewBox="0 0 20 20" enable-background="new 0 0 20 20" xml:space="preserve">
<g>
	<path d="M16.25,0H3.75C1.679,0,0,1.679,0,3.75v12.5C0,18.321,1.679,20,3.75,20h12.5c2.071,0,3.75-1.679,3.75-3.75V3.75
		C20,1.679,18.321,0,16.25,0z M16.144,12.238c-0.067,0.833-0.699,1.895-1.583,2.049c-2.831,0.22-6.187,0.193-9.119,0
		c-0.915-0.115-1.516-1.217-1.584-2.049c-0.142-1.747-0.142-2.742,0-4.489c0.068-0.831,0.684-1.928,1.584-2.027
		c2.898-0.244,6.272-0.192,9.119,0c1.018,0.037,1.516,1.085,1.583,1.918C16.284,9.387,16.284,10.491,16.144,12.238z"/>
	<polygon points="8.75,12.5 12.5,10 8.75,7.5 	"/>
</g>
</svg>
