<?xml version="1.0" encoding="utf-8"?>
<!-- Generator: Adobe Illustrator 15.0.1, SVG Export Plug-In . SVG Version: 6.00 Build 0)  -->
<!DOCTYPE svg PUBLIC "-//W3C//DTD SVG 1.1//EN" "http://www.w3.org/Graphics/SVG/1.1/DTD/svg11.dtd">
<svg version="1.1" id="Calque_1" xmlns="http://www.w3.org/2000/svg" xmlns:xlink="http://www.w3.org/1999/xlink" x="0px" y="0px"
	 width="20px" height="20px" viewBox="0 0 20 20" enable-background="new 0 0 20 20" xml:space="preserve">
<path d="M16.668,0H3.333C1.493,0,0,1.492,0,3.334v13.334C0,18.508,1.493,20,3.333,20h13.334C18.508,20,20,18.508,20,16.668V3.334
	C20,1.492,18.508,0,16.668,0z"/>
<path fill="#FFFFFF" d="M15.995,5.25C15.921,4.536,15.33,4,14.609,4c-3.071,0-6.144,0-9.215,0.001c-0.084,0-0.17,0.006-0.25,0.022
	C4.462,4.152,4,4.716,4,5.408c0,1.531,0,3.063,0,4.594c0,1.529,0,3.056,0.001,4.585c0,0.078,0.006,0.154,0.015,0.234
	C4.105,15.486,4.696,16,5.368,16c3.088,0,6.177,0,9.266,0c0.053,0,0.106-0.002,0.158-0.008c0.679-0.08,1.207-0.674,1.207-1.355
	c0.001-3.09,0.001-6.179,0-9.268C16,5.329,16,5.29,15.995,5.25z M10,7.694c1.274,0,2.308,1.03,2.309,2.306
	c0.002,1.275-1.03,2.309-2.305,2.309c-1.278,0-2.312-1.031-2.31-2.31C7.695,8.727,8.728,7.694,10,7.694z M14.618,9.142
	c0,1.657,0,3.313,0,4.972c0,0.312-0.19,0.504-0.502,0.504c-2.563,0-5.127,0-7.691,0c-0.185,0-0.368,0.002-0.553,0
	c-0.289,0-0.485-0.195-0.485-0.484c0-1.666,0-3.332,0-4.997c0-0.017,0-0.034,0-0.053c0.349,0,0.693,0,1.042,0
	c-0.233,0.94-0.126,1.839,0.333,2.691c0.336,0.621,0.819,1.104,1.435,1.451c1.215,0.684,2.725,0.621,3.881-0.17
	c0.643-0.439,1.104-1.023,1.379-1.75s0.31-1.467,0.118-2.224c0.349,0,0.693,0,1.043,0C14.618,9.101,14.618,9.122,14.618,9.142z
	 M14.618,7.221c-0.001,0.273-0.202,0.473-0.476,0.473c-0.003,0-0.007,0-0.009,0c-0.225,0-0.447,0-0.671,0c-0.229,0-0.457,0-0.684,0
	c-0.264,0-0.467-0.196-0.469-0.459c-0.003-0.462-0.003-0.925,0-1.386c0.002-0.267,0.204-0.461,0.472-0.461c0.455,0,0.909,0,1.364,0
	c0.27,0,0.471,0.2,0.472,0.472C14.619,6.312,14.619,6.767,14.618,7.221z"/>
</svg>
