<?xml version="1.0" encoding="utf-8"?>
<!-- Generator: Adobe Illustrator 15.0.1, SVG Export Plug-In . SVG Version: 6.00 Build 0)  -->
<!DOCTYPE svg PUBLIC "-//W3C//DTD SVG 1.1//EN" "http://www.w3.org/Graphics/SVG/1.1/DTD/svg11.dtd">
<svg version="1.1" id="Calque_1" xmlns="http://www.w3.org/2000/svg" xmlns:xlink="http://www.w3.org/1999/xlink" x="0px" y="0px"
	 width="20px" height="20px" viewBox="0 0 20 20" enable-background="new 0 0 20 20" xml:space="preserve">
<path d="M16.667,0H3.333C1.492,0,0,1.492,0,3.334v13.334C0,18.508,1.492,20,3.333,20h13.334C18.508,20,20,18.508,20,16.668V3.334
	C20,1.492,18.508,0,16.667,0z M10.333,13h2.666c0.453,0,1,0.359,1,1s-0.419,1-1,1c-0.238,0-2.875,0-3,0c-1.549,0-2-0.863-2-2v-1
	c0-0.797,0-1-1-1c-0.094,0-0.766-0.15-0.766-1.027s0.802-0.944,1.008-0.956C7.54,9.006,8,8.969,8,8.461s0-2.213,0-2.213
	C8,5.607,8.283,5.09,9,5.09s1,0.518,1,1.158v2.086C10,8.641,10.026,9,10.333,9h2.604c0.515,0,0.917,0.377,0.917,1s-0.402,1-0.917,1
	h-2.604C10.026,11,10,11.359,10,11.666v0.82C10,12.793,10.026,13,10.333,13z"/>
</svg>
